<svg width="67" height="23" viewBox="0 0 67 23" fill="none" xmlns="http://www.w3.org/2000/svg">
<path d="M23.2012 4H24.5012V11H23.2012V4ZM19.5812 11H18.2812V4H19.5812V11ZM23.3012 8H19.4712V6.89H23.3012V8ZM27.2269 11V4H28.5269V11H27.2269ZM34.5402 11.1C33.9936 11.1 33.4902 11.0133 33.0302 10.84C32.5769 10.66 32.1802 10.41 31.8402 10.09C31.5002 9.76333 31.2369 9.38 31.0502 8.94C30.8636 8.5 30.7702 8.02 30.7702 7.5C30.7702 6.98 30.8636 6.5 31.0502 6.06C31.2369 5.62 31.5002 5.24 31.8402 4.92C32.1869 4.59333 32.5902 4.34333 33.0502 4.17C33.5102 3.99 34.0136 3.9 34.5602 3.9C35.1536 3.9 35.6869 3.99667 36.1602 4.19C36.6402 4.38333 37.0436 4.66667 37.3702 5.04L36.5502 5.84C36.2769 5.56667 35.9802 5.36667 35.6602 5.24C35.3469 5.10667 35.0002 5.04 34.6202 5.04C34.2536 5.04 33.9136 5.1 33.6002 5.22C33.2869 5.34 33.0169 5.51 32.7902 5.73C32.5636 5.95 32.3869 6.21 32.2602 6.51C32.1402 6.81 32.0802 7.14 32.0802 7.5C32.0802 7.85333 32.1402 8.18 32.2602 8.48C32.3869 8.78 32.5636 9.04333 32.7902 9.27C33.0169 9.49 33.2836 9.66 33.5902 9.78C33.8969 9.9 34.2369 9.96 34.6102 9.96C34.9569 9.96 35.2902 9.90667 35.6102 9.8C35.9369 9.68667 36.2469 9.5 36.5402 9.24L37.2802 10.21C36.9136 10.5033 36.4869 10.7267 36.0002 10.88C35.5202 11.0267 35.0336 11.1 34.5402 11.1ZM36.0502 10.04V7.42H37.2802V10.21L36.0502 10.04ZM44.7649 4H46.0649V11H44.7649V4ZM41.1449 11H39.8449V4H41.1449V11ZM44.8649 8H41.0349V6.89H44.8649V8ZM48.7906 11V4H50.0906V9.9H53.7506V11H48.7906ZM56.6145 11V8.23L56.9045 9.03L53.8645 4H55.2545L57.6945 8.05H56.9145L59.3745 4H60.6545L57.6145 9.03L57.9145 8.23V11H56.6145ZM18.2812 19V12H21.5612C22.4012 12 23.0412 12.1667 23.4812 12.5C23.9212 12.8267 24.1412 13.2667 24.1412 13.82C24.1412 14.1933 24.0545 14.5133 23.8812 14.78C23.7079 15.04 23.4745 15.2433 23.1812 15.39C22.8945 15.53 22.5812 15.6 22.2412 15.6L22.4212 15.24C22.8145 15.24 23.1679 15.3133 23.4812 15.46C23.7945 15.6 24.0412 15.8067 24.2212 16.08C24.4079 16.3533 24.5012 16.6933 24.5012 17.1C24.5012 17.7 24.2712 18.1667 23.8112 18.5C23.3512 18.8333 22.6679 19 21.7612 19H18.2812ZM19.5812 17.98H21.6812C22.1679 17.98 22.5412 17.9 22.8012 17.74C23.0612 17.58 23.1912 17.3233 23.1912 16.97C23.1912 16.6233 23.0612 16.37 22.8012 16.21C22.5412 16.0433 22.1679 15.96 21.6812 15.96H19.4812V14.95H21.4212C21.8745 14.95 22.2212 14.87 22.4612 14.71C22.7079 14.55 22.8312 14.31 22.8312 13.99C22.8312 13.6633 22.7079 13.42 22.4612 13.26C22.2212 13.1 21.8745 13.02 21.4212 13.02H19.5812V17.98ZM28.7186 19.1C28.1719 19.1 27.6686 19.01 27.2086 18.83C26.7486 18.65 26.3486 18.4 26.0086 18.08C25.6686 17.7533 25.4053 17.3733 25.2186 16.94C25.0319 16.5 24.9386 16.02 24.9386 15.5C24.9386 14.98 25.0319 14.5033 25.2186 14.07C25.4053 13.63 25.6686 13.25 26.0086 12.93C26.3486 12.6033 26.7486 12.35 27.2086 12.17C27.6686 11.99 28.1686 11.9 28.7086 11.9C29.2553 11.9 29.7553 11.99 30.2086 12.17C30.6686 12.35 31.0686 12.6033 31.4086 12.93C31.7486 13.25 32.0119 13.63 32.1986 14.07C32.3853 14.5033 32.4786 14.98 32.4786 15.5C32.4786 16.02 32.3853 16.5 32.1986 16.94C32.0119 17.38 31.7486 17.76 31.4086 18.08C31.0686 18.4 30.6686 18.65 30.2086 18.83C29.7553 19.01 29.2586 19.1 28.7186 19.1ZM28.7086 17.96C29.0619 17.96 29.3886 17.9 29.6886 17.78C29.9886 17.66 30.2486 17.49 30.4686 17.27C30.6886 17.0433 30.8586 16.7833 30.9786 16.49C31.1053 16.19 31.1686 15.86 31.1686 15.5C31.1686 15.14 31.1053 14.8133 30.9786 14.52C30.8586 14.22 30.6886 13.96 30.4686 13.74C30.2486 13.5133 29.9886 13.34 29.6886 13.22C29.3886 13.1 29.0619 13.04 28.7086 13.04C28.3553 13.04 28.0286 13.1 27.7286 13.22C27.4353 13.34 27.1753 13.5133 26.9486 13.74C26.7286 13.96 26.5553 14.22 26.4286 14.52C26.3086 14.8133 26.2486 15.14 26.2486 15.5C26.2486 15.8533 26.3086 16.18 26.4286 16.48C26.5553 16.78 26.7286 17.0433 26.9486 17.27C27.1686 17.49 27.4286 17.66 27.7286 17.78C28.0286 17.9 28.3553 17.96 28.7086 17.96ZM36.6866 19.1C36.1399 19.1 35.6366 19.01 35.1766 18.83C34.7166 18.65 34.3166 18.4 33.9766 18.08C33.6366 17.7533 33.3732 17.3733 33.1866 16.94C32.9999 16.5 32.9066 16.02 32.9066 15.5C32.9066 14.98 32.9999 14.5033 33.1866 14.07C33.3732 13.63 33.6366 13.25 33.9766 12.93C34.3166 12.6033 34.7166 12.35 35.1766 12.17C35.6366 11.99 36.1366 11.9 36.6766 11.9C37.2232 11.9 37.7232 11.99 38.1766 12.17C38.6366 12.35 39.0366 12.6033 39.3766 12.93C39.7166 13.25 39.9799 13.63 40.1666 14.07C40.3532 14.5033 40.4466 14.98 40.4466 15.5C40.4466 16.02 40.3532 16.5 40.1666 16.94C39.9799 17.38 39.7166 17.76 39.3766 18.08C39.0366 18.4 38.6366 18.65 38.1766 18.83C37.7232 19.01 37.2266 19.1 36.6866 19.1ZM36.6766 17.96C37.0299 17.96 37.3566 17.9 37.6566 17.78C37.9566 17.66 38.2166 17.49 38.4366 17.27C38.6566 17.0433 38.8266 16.7833 38.9466 16.49C39.0732 16.19 39.1366 15.86 39.1366 15.5C39.1366 15.14 39.0732 14.8133 38.9466 14.52C38.8266 14.22 38.6566 13.96 38.4366 13.74C38.2166 13.5133 37.9566 13.34 37.6566 13.22C37.3566 13.1 37.0299 13.04 36.6766 13.04C36.3232 13.04 35.9966 13.1 35.6966 13.22C35.4032 13.34 35.1432 13.5133 34.9166 13.74C34.6966 13.96 34.5232 14.22 34.3966 14.52C34.2766 14.8133 34.2166 15.14 34.2166 15.5C34.2166 15.8533 34.2766 16.18 34.3966 16.48C34.5232 16.78 34.6966 17.0433 34.9166 17.27C35.1366 17.49 35.3966 17.66 35.6966 17.78C35.9966 17.9 36.3232 17.96 36.6766 17.96ZM42.5345 17.35L42.4645 15.81L46.1345 12H47.5945L44.5445 15.24L43.8245 16.03L42.5345 17.35ZM41.3745 19V12H42.6745V19H41.3745ZM46.2545 19L43.5745 15.81L44.4345 14.86L47.7745 19H46.2545ZM49.4097 14.91H52.8897V15.98H49.4097V14.91ZM49.5097 17.91H53.4597V19H48.2097V12H53.3197V13.09H49.5097V17.91ZM54.4589 19V12H57.5189C58.2789 12 58.9456 12.1467 59.5189 12.44C60.0923 12.7333 60.5389 13.14 60.8589 13.66C61.1789 14.18 61.3389 14.7933 61.3389 15.5C61.3389 16.2 61.1789 16.8133 60.8589 17.34C60.5389 17.86 60.0923 18.2667 59.5189 18.56C58.9456 18.8533 58.2789 19 57.5189 19H54.4589ZM55.7589 17.9H57.4589C57.9856 17.9 58.4389 17.8 58.8189 17.6C59.2056 17.4 59.5023 17.12 59.7089 16.76C59.9223 16.4 60.0289 15.98 60.0289 15.5C60.0289 15.0133 59.9223 14.5933 59.7089 14.24C59.5023 13.88 59.2056 13.6 58.8189 13.4C58.4389 13.2 57.9856 13.1 57.4589 13.1H55.7589V17.9Z" fill="#E4181E"/>
<g clip-path="url(#clip0_1_96)">
<path d="M14.1552 11.3852C13.0144 7.62391 8.95238 7.4211 9.93336 1.95438C10.006 1.54876 9.6645 1.23532 9.38837 1.44735C6.75062 3.42016 4.85405 7.37501 6.44542 12.5559C6.57622 12.98 6.18383 13.3764 5.90043 13.0999C4.58519 11.8369 4.44712 10.0208 4.56339 8.72095C4.60699 8.24157 4.11286 8.0111 3.90213 8.40751C3.40801 9.36626 2.90662 10.915 2.90662 13.2474C3.18274 18.4099 6.61982 19.9955 7.85513 20.1983C9.6209 20.4841 11.532 20.0692 12.9054 18.4744C14.4168 16.6952 14.9691 13.8558 14.1552 11.3852ZM7.41187 16.0222C8.45826 15.6995 8.99598 14.7408 9.14131 13.8927C9.38111 12.5744 8.44372 11.2838 9.07591 9.20032C9.31571 10.9242 11.4521 12.0028 11.4521 13.8834C11.5102 16.2158 9.51917 18.2163 7.41187 16.0222Z" fill="#E4181E"/>
</g>
<defs>
<clipPath id="clip0_1_96">
<rect width="17.4397" height="22.125" fill="white"/>
</clipPath>
</defs>
</svg>
