<svg width="108" height="17" viewBox="0 0 108 17" fill="none" xmlns="http://www.w3.org/2000/svg">
<path d="M25.56 14V12.608L30.008 8.384C30.3813 8.032 30.6587 7.72267 30.84 7.456C31.0213 7.18933 31.1387 6.944 31.192 6.72C31.256 6.48533 31.288 6.26667 31.288 6.064C31.288 5.552 31.112 5.15733 30.76 4.88C30.408 4.592 29.8907 4.448 29.208 4.448C28.664 4.448 28.168 4.544 27.72 4.736C27.2827 4.928 26.904 5.22133 26.584 5.616L25.128 4.496C25.5653 3.90933 26.152 3.456 26.888 3.136C27.6347 2.80533 28.4667 2.64 29.384 2.64C30.1947 2.64 30.8987 2.77333 31.496 3.04C32.104 3.296 32.568 3.664 32.888 4.144C33.2187 4.624 33.384 5.19467 33.384 5.856C33.384 6.21867 33.336 6.58133 33.24 6.944C33.144 7.296 32.9627 7.66933 32.696 8.064C32.4293 8.45867 32.04 8.90133 31.528 9.392L27.704 13.024L27.272 12.24H33.816V14H25.56ZM40.7125 14.16C39.7845 14.16 38.9792 14.0213 38.2965 13.744C37.6138 13.4667 37.0858 13.0773 36.7125 12.576C36.3392 12.064 36.1525 11.4667 36.1525 10.784C36.1525 10.1013 36.3338 9.52533 36.6965 9.056C37.0592 8.58667 37.5818 8.22933 38.2645 7.984C38.9472 7.73867 39.7632 7.616 40.7125 7.616C41.6618 7.616 42.4778 7.73867 43.1605 7.984C43.8538 8.22933 44.3818 8.592 44.7445 9.072C45.1178 9.54133 45.3045 10.112 45.3045 10.784C45.3045 11.4667 45.1125 12.064 44.7285 12.576C44.3552 13.0773 43.8218 13.4667 43.1285 13.744C42.4458 14.0213 41.6405 14.16 40.7125 14.16ZM40.7125 12.528C41.4805 12.528 42.0885 12.368 42.5365 12.048C42.9845 11.728 43.2085 11.2853 43.2085 10.72C43.2085 10.1653 42.9845 9.728 42.5365 9.408C42.0885 9.088 41.4805 8.928 40.7125 8.928C39.9445 8.928 39.3418 9.088 38.9045 9.408C38.4672 9.728 38.2485 10.1653 38.2485 10.72C38.2485 11.2853 38.4672 11.728 38.9045 12.048C39.3418 12.368 39.9445 12.528 40.7125 12.528ZM40.7125 8.704C39.8485 8.704 39.1072 8.592 38.4885 8.368C37.8698 8.13333 37.3898 7.79733 37.0485 7.36C36.7178 6.912 36.5525 6.37867 36.5525 5.76C36.5525 5.12 36.7232 4.57067 37.0645 4.112C37.4165 3.64267 37.9072 3.28 38.5365 3.024C39.1658 2.768 39.8912 2.64 40.7125 2.64C41.5445 2.64 42.2752 2.768 42.9045 3.024C43.5338 3.28 44.0245 3.64267 44.3765 4.112C44.7285 4.57067 44.9045 5.12 44.9045 5.76C44.9045 6.37867 44.7338 6.912 44.3925 7.36C44.0618 7.79733 43.5818 8.13333 42.9525 8.368C42.3232 8.592 41.5765 8.704 40.7125 8.704ZM40.7125 7.424C41.3738 7.424 41.8965 7.28533 42.2805 7.008C42.6645 6.72 42.8565 6.336 42.8565 5.856C42.8565 5.35467 42.6592 4.96533 42.2645 4.688C41.8698 4.41067 41.3525 4.272 40.7125 4.272C40.0725 4.272 39.5605 4.41067 39.1765 4.688C38.7925 4.96533 38.6005 5.35467 38.6005 5.856C38.6005 6.336 38.7872 6.72 39.1605 7.008C39.5445 7.28533 40.0618 7.424 40.7125 7.424ZM52.526 14.16C51.6407 14.16 50.8407 13.936 50.126 13.488C49.422 13.04 48.8673 12.3893 48.462 11.536C48.0567 10.672 47.854 9.62667 47.854 8.4C47.854 7.17333 48.0567 6.13333 48.462 5.28C48.8673 4.416 49.422 3.76 50.126 3.312C50.8407 2.864 51.6407 2.64 52.526 2.64C53.422 2.64 54.222 2.864 54.926 3.312C55.63 3.76 56.1847 4.416 56.59 5.28C57.006 6.13333 57.214 7.17333 57.214 8.4C57.214 9.62667 57.006 10.672 56.59 11.536C56.1847 12.3893 55.63 13.04 54.926 13.488C54.222 13.936 53.422 14.16 52.526 14.16ZM52.526 12.352C53.0487 12.352 53.502 12.2133 53.886 11.936C54.27 11.648 54.5687 11.2107 54.782 10.624C55.006 10.0373 55.118 9.296 55.118 8.4C55.118 7.49333 55.006 6.752 54.782 6.176C54.5687 5.58933 54.27 5.15733 53.886 4.88C53.502 4.592 53.0487 4.448 52.526 4.448C52.0247 4.448 51.5767 4.592 51.182 4.88C50.798 5.15733 50.494 5.58933 50.27 6.176C50.0567 6.752 49.95 7.49333 49.95 8.4C49.95 9.296 50.0567 10.0373 50.27 10.624C50.494 11.2107 50.798 11.648 51.182 11.936C51.5767 12.2133 52.0247 12.352 52.526 12.352Z" fill="#00691F"/>
<path d="M60.709 8L57.955 1.7H59.224L61.681 7.397H60.952L63.436 1.7H64.606L61.861 8H60.709ZM64.4608 8V1.7H65.6308V8H64.4608ZM67.6048 4.319H70.7368V5.282H67.6048V4.319ZM67.6948 7.019H71.2498V8H66.5248V1.7H71.1238V2.681H67.6948V7.019ZM73.1412 8L71.0532 1.7H72.2682L74.1312 7.397H73.5282L75.4632 1.7H76.5432L78.4242 7.397H77.8392L79.7472 1.7H80.8632L78.7752 8H77.5332L75.8142 2.861H76.1382L74.3922 8H73.1412ZM82.9594 8.09C82.4674 8.09 81.9964 8.021 81.5464 7.883C81.0964 7.739 80.7394 7.556 80.4754 7.334L80.8804 6.425C81.1324 6.623 81.4444 6.788 81.8164 6.92C82.1884 7.052 82.5694 7.118 82.9594 7.118C83.2894 7.118 83.5564 7.082 83.7604 7.01C83.9644 6.938 84.1144 6.842 84.2104 6.722C84.3064 6.596 84.3544 6.455 84.3544 6.299C84.3544 6.107 84.2854 5.954 84.1474 5.84C84.0094 5.72 83.8294 5.627 83.6074 5.561C83.3914 5.489 83.1484 5.423 82.8784 5.363C82.6144 5.303 82.3474 5.234 82.0774 5.156C81.8134 5.072 81.5704 4.967 81.3484 4.841C81.1324 4.709 80.9554 4.535 80.8174 4.319C80.6794 4.103 80.6104 3.827 80.6104 3.491C80.6104 3.149 80.7004 2.837 80.8804 2.555C81.0664 2.267 81.3454 2.039 81.7174 1.871C82.0954 1.697 82.5724 1.61 83.1484 1.61C83.5264 1.61 83.9014 1.658 84.2734 1.754C84.6454 1.85 84.9694 1.988 85.2454 2.168L84.8764 3.077C84.5944 2.909 84.3034 2.786 84.0034 2.708C83.7034 2.624 83.4154 2.582 83.1394 2.582C82.8154 2.582 82.5514 2.621 82.3474 2.699C82.1494 2.777 82.0024 2.879 81.9064 3.005C81.8164 3.131 81.7714 3.275 81.7714 3.437C81.7714 3.629 81.8374 3.785 81.9694 3.905C82.1074 4.019 82.2844 4.109 82.5004 4.175C82.7224 4.241 82.9684 4.307 83.2384 4.373C83.5084 4.433 83.7754 4.502 84.0394 4.58C84.3094 4.658 84.5524 4.76 84.7684 4.886C84.9904 5.012 85.1674 5.183 85.2994 5.399C85.4374 5.615 85.5064 5.888 85.5064 6.218C85.5064 6.554 85.4134 6.866 85.2274 7.154C85.0474 7.436 84.7684 7.664 84.3904 7.838C84.0124 8.006 83.5354 8.09 82.9594 8.09ZM88.8119 8V2.69H86.7239V1.7H92.0699V2.69H89.9819V8H88.8119ZM96.5659 1.7H97.7359V8H96.5659V1.7ZM93.3079 8H92.1379V1.7H93.3079V8ZM96.6559 5.3H93.2089V4.301H96.6559V5.3ZM98.614 8V1.7H99.784V8H98.614ZM102.631 8.09C102.139 8.09 101.668 8.021 101.218 7.883C100.768 7.739 100.411 7.556 100.147 7.334L100.552 6.425C100.804 6.623 101.116 6.788 101.488 6.92C101.86 7.052 102.241 7.118 102.631 7.118C102.961 7.118 103.228 7.082 103.432 7.01C103.636 6.938 103.786 6.842 103.882 6.722C103.978 6.596 104.026 6.455 104.026 6.299C104.026 6.107 103.957 5.954 103.819 5.84C103.681 5.72 103.501 5.627 103.279 5.561C103.063 5.489 102.82 5.423 102.55 5.363C102.286 5.303 102.019 5.234 101.749 5.156C101.485 5.072 101.242 4.967 101.02 4.841C100.804 4.709 100.627 4.535 100.489 4.319C100.351 4.103 100.282 3.827 100.282 3.491C100.282 3.149 100.372 2.837 100.552 2.555C100.738 2.267 101.017 2.039 101.389 1.871C101.767 1.697 102.244 1.61 102.82 1.61C103.198 1.61 103.573 1.658 103.945 1.754C104.317 1.85 104.641 1.988 104.917 2.168L104.548 3.077C104.266 2.909 103.975 2.786 103.675 2.708C103.375 2.624 103.087 2.582 102.811 2.582C102.487 2.582 102.223 2.621 102.019 2.699C101.821 2.777 101.674 2.879 101.578 3.005C101.488 3.131 101.443 3.275 101.443 3.437C101.443 3.629 101.509 3.785 101.641 3.905C101.779 4.019 101.956 4.109 102.172 4.175C102.394 4.241 102.64 4.307 102.91 4.373C103.18 4.433 103.447 4.502 103.711 4.58C103.981 4.658 104.224 4.76 104.44 4.886C104.662 5.012 104.839 5.183 104.971 5.399C105.109 5.615 105.178 5.888 105.178 6.218C105.178 6.554 105.085 6.866 104.899 7.154C104.719 7.436 104.44 7.664 104.062 7.838C103.684 8.006 103.207 8.09 102.631 8.09ZM58.94 16V9H60.01L63.07 14.11H62.51L65.52 9H66.59L66.6 16H65.37L65.36 10.93H65.62L63.06 15.2H62.48L59.88 10.93H60.18V16H58.94ZM73.4208 16.1C72.8741 16.1 72.3708 16.01 71.9108 15.83C71.4508 15.65 71.0508 15.4 70.7108 15.08C70.3708 14.7533 70.1074 14.3733 69.9208 13.94C69.7341 13.5 69.6408 13.02 69.6408 12.5C69.6408 11.98 69.7341 11.5033 69.9208 11.07C70.1074 10.63 70.3708 10.25 70.7108 9.93C71.0508 9.60333 71.4508 9.35 71.9108 9.17C72.3708 8.99 72.8708 8.9 73.4108 8.9C73.9574 8.9 74.4574 8.99 74.9108 9.17C75.3708 9.35 75.7708 9.60333 76.1108 9.93C76.4508 10.25 76.7141 10.63 76.9008 11.07C77.0874 11.5033 77.1808 11.98 77.1808 12.5C77.1808 13.02 77.0874 13.5 76.9008 13.94C76.7141 14.38 76.4508 14.76 76.1108 15.08C75.7708 15.4 75.3708 15.65 74.9108 15.83C74.4574 16.01 73.9608 16.1 73.4208 16.1ZM73.4108 14.96C73.7641 14.96 74.0908 14.9 74.3908 14.78C74.6908 14.66 74.9508 14.49 75.1708 14.27C75.3908 14.0433 75.5608 13.7833 75.6808 13.49C75.8074 13.19 75.8708 12.86 75.8708 12.5C75.8708 12.14 75.8074 11.8133 75.6808 11.52C75.5608 11.22 75.3908 10.96 75.1708 10.74C74.9508 10.5133 74.6908 10.34 74.3908 10.22C74.0908 10.1 73.7641 10.04 73.4108 10.04C73.0574 10.04 72.7308 10.1 72.4308 10.22C72.1374 10.34 71.8774 10.5133 71.6508 10.74C71.4308 10.96 71.2574 11.22 71.1308 11.52C71.0108 11.8133 70.9508 12.14 70.9508 12.5C70.9508 12.8533 71.0108 13.18 71.1308 13.48C71.2574 13.78 71.4308 14.0433 71.6508 14.27C71.8708 14.49 72.1308 14.66 72.4308 14.78C72.7308 14.9 73.0574 14.96 73.4108 14.96ZM80.2087 16V9H81.2787L85.6687 14.39H85.1387V9H86.4287V16H85.3587L80.9687 10.61H81.4987V16H80.2087ZM91.3745 16V10.1H89.0545V9H94.9945V10.1H92.6745V16H91.3745ZM102.54 9H103.84V16H102.54V9ZM98.9201 16H97.6201V9H98.9201V16ZM102.64 13H98.8101V11.89H102.64V13Z" fill="#1FD655"/>
<path d="M16.7484 2L19.3819 4.67167L13.7699 10.365L9.16994 5.69833L0.648438 14.355L2.26994 16L9.16994 9L13.7699 13.6667L21.0149 6.32833L23.6484 9V2H16.7484Z" fill="#1FD655"/>
</svg>
